<svg width="40" height="40" viewBox="0 0 40 40" fill="none" xmlns="http://www.w3.org/2000/svg">
<path d="M38.2999 6.09053H12.2176C7.50019 6.09053 6.1502 2.03862 6.1502 2.03862L5.64271 0.531814C5.52021 0.215258 5.20771 0 4.86522 0H0.840262C0.250269 0 -0.159727 0.607787 0.0602706 1.16493L1.67025 6.09053L7.77519 24.7344C7.89269 25.0814 8.21268 25.3169 8.57518 25.3169H29.6199L28.3875 30.2754H9.42017L9.42517 30.283C9.38267 30.283 9.34267 30.2754 9.30017 30.2754C6.6502 30.2754 4.50022 32.4533 4.50022 35.1377C4.50022 37.8221 6.6502 40 9.30017 40C11.7751 40 13.8126 38.1007 14.0751 35.6644L27.95 35.8569C28.25 38.1918 30.2249 40 32.6174 40C35.2174 40 37.3299 37.8626 37.3299 35.2263C37.3299 33.0332 35.8699 31.1921 33.8799 30.6325L39.9373 8.26591C40.2373 7.16936 39.4223 6.09053 38.2999 6.09053Z" fill="#3BBF81"/>
</svg>
