<svg width="182" height="33" viewBox="0 0 182 33" fill="none" xmlns="http://www.w3.org/2000/svg">
<path d="M15.9277 15.543H26.9062V30.7754C25.2591 31.334 23.5618 31.7493 21.8145 32.0215C20.0814 32.2936 18.1406 32.4297 15.9922 32.4297C12.7266 32.4297 9.9694 31.778 7.7207 30.4746C5.48633 29.1712 3.78906 27.3164 2.62891 24.9102C1.46875 22.4896 0.888672 19.6178 0.888672 16.2949C0.888672 13.0436 1.52604 10.2077 2.80078 7.78711C4.08984 5.36654 5.94466 3.49023 8.36523 2.1582C10.8001 0.811849 13.722 0.138672 17.1309 0.138672C18.8783 0.138672 20.5326 0.303385 22.0938 0.632812C23.6693 0.947917 25.1302 1.39909 26.4766 1.98633L25.0801 5.16602C23.9199 4.66471 22.638 4.23503 21.2344 3.87695C19.8451 3.51888 18.4056 3.33984 16.916 3.33984C14.3522 3.33984 12.1536 3.86979 10.3203 4.92969C8.5013 5.98958 7.10482 7.48633 6.13086 9.41992C5.17122 11.3535 4.69141 13.6452 4.69141 16.2949C4.69141 18.916 5.11393 21.2005 5.95898 23.1484C6.80404 25.082 8.12174 26.5859 9.91211 27.6602C11.7025 28.7344 14.0085 29.2715 16.8301 29.2715C18.248 29.2715 19.4655 29.1927 20.4824 29.0352C21.4993 28.8633 22.4232 28.6628 23.2539 28.4336V18.8086H15.9277V15.543ZM54.2773 20.1836C54.2773 22.1172 54.0267 23.8431 53.5254 25.3613C53.0241 26.8796 52.3008 28.1615 51.3555 29.207C50.4102 30.2526 49.2643 31.0547 47.918 31.6133C46.5859 32.1576 45.0749 32.4297 43.3848 32.4297C41.8092 32.4297 40.3626 32.1576 39.0449 31.6133C37.7415 31.0547 36.61 30.2526 35.6504 29.207C34.7051 28.1615 33.9674 26.8796 33.4375 25.3613C32.9219 23.8431 32.6641 22.1172 32.6641 20.1836C32.6641 17.6055 33.1009 15.4141 33.9746 13.6094C34.8483 11.7904 36.0944 10.4082 37.7129 9.46289C39.3457 8.50326 41.2865 8.02344 43.5352 8.02344C45.6836 8.02344 47.5599 8.50326 49.1641 9.46289C50.7826 10.4225 52.0358 11.8118 52.9238 13.6309C53.8262 15.4355 54.2773 17.6198 54.2773 20.1836ZM36.3594 20.1836C36.3594 22.0742 36.61 23.7142 37.1113 25.1035C37.6126 26.4928 38.3861 27.5671 39.4316 28.3262C40.4772 29.0853 41.8236 29.4648 43.4707 29.4648C45.1035 29.4648 46.4427 29.0853 47.4883 28.3262C48.5482 27.5671 49.3288 26.4928 49.8301 25.1035C50.3314 23.7142 50.582 22.0742 50.582 20.1836C50.582 18.3073 50.3314 16.6888 49.8301 15.3281C49.3288 13.9531 48.5553 12.8932 47.5098 12.1484C46.4642 11.4036 45.1107 11.0312 43.4492 11.0312C41 11.0312 39.2025 11.8405 38.0566 13.459C36.9251 15.0775 36.3594 17.319 36.3594 20.1836ZM79.8867 8.45312V32H76.9648L76.4492 28.6914H76.2559C75.7689 29.5078 75.1387 30.1953 74.3652 30.7539C73.5918 31.3125 72.7181 31.7279 71.7441 32C70.7845 32.2865 69.7604 32.4297 68.6719 32.4297C66.8099 32.4297 65.2487 32.1289 63.9883 31.5273C62.7279 30.9258 61.7754 29.9948 61.1309 28.7344C60.5007 27.474 60.1855 25.8555 60.1855 23.8789V8.45312H63.7949V23.6211C63.7949 25.5833 64.2389 27.0514 65.127 28.0254C66.015 28.985 67.3685 29.4648 69.1875 29.4648C70.9349 29.4648 72.3242 29.1354 73.3555 28.4766C74.401 27.8177 75.153 26.8509 75.6113 25.5762C76.0697 24.2871 76.2988 22.7116 76.2988 20.8496V8.45312H79.8867ZM98.127 8.02344C98.5996 8.02344 99.0938 8.05208 99.6094 8.10938C100.125 8.15234 100.583 8.2168 100.984 8.30273L100.533 11.6113C100.146 11.5111 99.7168 11.4323 99.2441 11.375C98.7715 11.3177 98.3275 11.2891 97.9121 11.2891C96.9668 11.2891 96.0716 11.4824 95.2266 11.8691C94.3958 12.2415 93.6654 12.7858 93.0352 13.502C92.4049 14.2038 91.9108 15.056 91.5527 16.0586C91.1947 17.0469 91.0156 18.1497 91.0156 19.3672V32H87.4277V8.45312H90.3926L90.7793 12.793H90.9297C91.4167 11.9193 92.0039 11.1243 92.6914 10.4082C93.3789 9.67773 94.1738 9.09766 95.0762 8.66797C95.9928 8.23828 97.0098 8.02344 98.127 8.02344ZM130.998 8.02344C133.59 8.02344 135.546 8.70378 136.863 10.0645C138.181 11.4108 138.84 13.5807 138.84 16.5742V32H135.316V16.7461C135.316 14.8411 134.901 13.416 134.07 12.4707C133.254 11.5111 132.036 11.0312 130.418 11.0312C128.141 11.0312 126.486 11.6901 125.455 13.0078C124.424 14.3255 123.908 16.2663 123.908 18.8301V32H120.363V16.7461C120.363 15.4714 120.177 14.4115 119.805 13.5664C119.447 12.7214 118.902 12.0911 118.172 11.6758C117.456 11.2461 116.546 11.0312 115.443 11.0312C113.882 11.0312 112.629 11.3535 111.684 11.998C110.738 12.6426 110.051 13.6022 109.621 14.877C109.206 16.1374 108.998 17.6914 108.998 19.5391V32H105.432V8.45312H108.311L108.848 11.7832H109.041C109.514 10.9668 110.108 10.2793 110.824 9.7207C111.54 9.16211 112.342 8.73958 113.23 8.45312C114.118 8.16667 115.064 8.02344 116.066 8.02344C117.857 8.02344 119.354 8.36003 120.557 9.0332C121.774 9.69206 122.655 10.7018 123.199 12.0625H123.393C124.166 10.7018 125.226 9.69206 126.572 9.0332C127.919 8.36003 129.394 8.02344 130.998 8.02344ZM155.232 8.02344C157.238 8.02344 158.956 8.46745 160.389 9.35547C161.821 10.2435 162.917 11.4896 163.676 13.0938C164.435 14.6836 164.814 16.5456 164.814 18.6797V20.8926H148.551C148.594 23.6569 149.281 25.7624 150.613 27.209C151.945 28.6556 153.822 29.3789 156.242 29.3789C157.732 29.3789 159.049 29.2428 160.195 28.9707C161.341 28.6986 162.53 28.2975 163.762 27.7676V30.9043C162.573 31.4342 161.391 31.821 160.217 32.0645C159.057 32.3079 157.682 32.4297 156.092 32.4297C153.829 32.4297 151.852 31.9714 150.162 31.0547C148.486 30.1237 147.183 28.763 146.252 26.9727C145.321 25.1823 144.855 22.9909 144.855 20.3984C144.855 17.8633 145.278 15.6719 146.123 13.8242C146.982 11.9622 148.186 10.5299 149.732 9.52734C151.294 8.52474 153.127 8.02344 155.232 8.02344ZM155.189 10.9453C153.285 10.9453 151.766 11.5684 150.635 12.8145C149.503 14.0605 148.83 15.8008 148.615 18.0352H161.076C161.062 16.6315 160.84 15.3997 160.41 14.3398C159.995 13.2656 159.357 12.4349 158.498 11.8477C157.639 11.2461 156.536 10.9453 155.189 10.9453ZM178.479 29.5078C179.066 29.5078 179.667 29.4577 180.283 29.3574C180.899 29.2572 181.4 29.1354 181.787 28.9922V31.7637C181.372 31.9499 180.792 32.1074 180.047 32.2363C179.316 32.3652 178.6 32.4297 177.898 32.4297C176.652 32.4297 175.521 32.2148 174.504 31.7852C173.487 31.3411 172.671 30.5964 172.055 29.5508C171.453 28.5052 171.152 27.0586 171.152 25.2109V11.2461H167.801V9.50586L171.174 8.10938L172.592 2.99609H174.74V8.45312H181.637V11.2461H174.74V25.1035C174.74 26.5788 175.077 27.6816 175.75 28.4121C176.438 29.1426 177.347 29.5078 178.479 29.5078Z" fill="#3BBF81"/>
</svg>
