<svg width="40" height="33" viewBox="0 0 40 33" fill="none" xmlns="http://www.w3.org/2000/svg">
<path d="M19.9508 4.4343C21.7211 2.40802 24.0802 0.959428 26.713 0.282088C28.7466 -0.163179 30.8682 -0.0233362 32.8227 0.684803C34.7772 1.39294 36.4814 2.63924 37.7304 4.27386C38.9263 5.85468 39.6072 7.7526 39.684 9.71907C39.7607 11.6855 39.2296 13.6289 38.1603 15.2946C37.537 16.1957 36.8162 17.0281 36.0105 17.7775C31.2454 22.3154 26.4616 26.8323 21.6591 31.3281C20.1145 32.7867 19.6961 32.7867 18.1564 31.3281C13.038 26.4839 7.84687 21.7093 2.83597 16.7743C1.19547 15.1791 0.197788 13.0571 0.0264207 10.7985C-0.144946 8.53998 0.52152 6.29672 1.90325 4.48131C2.78976 3.2606 3.92876 2.23663 5.24604 1.47612C6.56332 0.715604 8.02932 0.235612 9.54853 0.0674171C11.0677 -0.100778 12.6061 0.0465979 14.0633 0.49994C15.5205 0.953283 16.8639 1.70242 18.0059 2.69854C18.6294 3.22365 19.2198 3.78117 19.9508 4.43593" fill="#3BBF81"/>
</svg>
