<svg width="35" height="43" viewBox="0 0 35 43" fill="none" xmlns="http://www.w3.org/2000/svg">
<path d="M17.504 42.534C12.4277 38.9207 7.98099 34.6275 4.31516 29.8005C1.62958 26.2826 0.131192 22.1257 0.00444465 17.8415C-0.0551793 15.1942 0.485638 12.5643 1.59301 10.1163C2.5553 8.02737 3.95324 6.12847 5.70929 4.52495C7.32058 3.06094 9.23808 1.90684 11.348 1.13112C13.2974 0.384549 15.3905 0 17.505 0C19.6194 0 21.7125 0.384549 23.6619 1.13112C25.7718 1.90684 27.6893 3.06094 29.3006 4.52495C31.0566 6.1285 32.4546 8.02739 33.4169 10.1163C34.5243 12.5643 35.0651 15.1942 35.0055 17.8415C34.8787 22.1257 33.3803 26.2826 30.6947 29.8005C27.0283 34.6277 22.581 38.9208 17.504 42.534ZM17.504 21.9761C18.1122 21.9806 18.7143 21.8643 19.2683 21.6354C19.8223 21.4064 20.315 21.0704 20.7122 20.6505C21.5683 19.7672 22.0408 18.6293 22.0408 17.4507C22.0408 16.2722 21.5683 15.1342 20.7122 14.251C20.3118 13.8346 19.8185 13.5009 19.2652 13.2723C18.7119 13.0437 18.1115 12.9255 17.504 12.9255C16.8965 12.9255 16.296 13.0437 15.7428 13.2723C15.1895 13.5009 14.6961 13.8346 14.2957 14.251C13.4396 15.1342 12.9671 16.2722 12.9671 17.4507C12.9671 18.6293 13.4396 19.7672 14.2957 20.6505C14.693 21.0704 15.1857 21.4064 15.7397 21.6354C16.2937 21.8643 16.8957 21.9806 17.504 21.9761Z" fill="#3BBF81"/>
</svg>
