<svg width="43" height="51" viewBox="0 0 43 51" fill="none" xmlns="http://www.w3.org/2000/svg">
<path d="M31.0675 51C27.7517 51 24.9304 49.6239 22.6037 46.8718C20.2753 44.1197 19.1111 40.7783 19.1111 36.8475C19.1111 32.9148 20.2713 29.5687 22.5917 26.809C24.9121 24.0474 27.7294 22.6667 31.0436 22.6667C34.3594 22.6667 37.1807 24.0427 39.5074 26.7948C41.8358 29.5469 43 32.8884 43 36.8192C43 40.7518 41.8398 44.098 39.5194 46.8577C37.199 49.6192 34.3817 51 31.0675 51ZM31.0556 48.1667C33.6833 48.1667 35.9329 47.0569 37.8042 44.8375C39.6755 42.6181 40.6111 39.95 40.6111 36.8333C40.6111 33.7167 39.6755 31.0486 37.8042 28.8292C35.9329 26.6097 33.6833 25.5 31.0556 25.5C28.4278 25.5 26.1782 26.6097 24.3069 28.8292C22.4356 31.0486 21.5 33.7167 21.5 36.8333C21.5 39.95 22.4356 42.6181 24.3069 44.8375C26.1782 47.0569 28.4278 48.1667 31.0556 48.1667ZM0 45.3333V20.128L5.87189 4.57583H2.29811V0H19.2019V4.57583H15.6281L21.5908 20.5757C21.2643 20.7929 20.9378 21.0526 20.6113 21.3548C20.288 21.6571 19.9655 21.9923 19.6438 22.3607L13.0672 4.57583H8.43517L2.38889 20.8023V42.5H15.0213C15.1296 43.0194 15.269 43.5181 15.4394 43.996C15.6082 44.4739 15.7937 44.9197 15.996 45.3333H0ZM31.0556 18.7425C30.0267 18.4157 29.1723 17.7584 28.4923 16.7705C27.8122 15.7826 27.4722 14.6238 27.4722 13.294C27.4722 11.9642 27.8122 10.8054 28.4923 9.8175C29.1723 8.82961 30.0267 8.17228 31.0556 7.8455V18.7425ZM31.0556 18.7425C31.3311 17.5223 31.8853 16.5089 32.7182 15.7023C33.5511 14.8958 34.5282 14.4925 35.6494 14.4925C36.7706 14.4925 37.7476 14.8958 38.5806 15.7023C39.4135 16.5089 39.9677 17.5223 40.2432 18.7425H31.0556Z" fill="#3BBF81"/>
</svg>
