<svg width="40" height="47" viewBox="0 0 40 47" fill="none" xmlns="http://www.w3.org/2000/svg">
<path d="M19.7533 46.1313C13.9159 46.1313 8.07792 46.1313 2.23938 46.1313C0.222235 46.1313 -0.053814 45.8426 0.0075304 43.9445C0.254256 39.9386 1.93011 36.1541 4.73046 33.2789C7.53081 30.4037 11.2698 28.6287 15.2679 28.2765C18.8249 27.9516 22.4076 28.0424 25.9436 28.5471C29.6298 29.1897 32.9913 31.0573 35.4843 33.8476C37.9774 36.638 39.4561 40.1878 39.6811 43.9229C39.7641 45.7686 39.4213 46.1258 37.4439 46.1295C31.55 46.1391 25.6525 46.1391 19.7514 46.1295" fill="#3BBF81"/>
<path d="M19.7218 23.4551C17.4028 23.4661 15.1326 22.7893 13.1982 21.5104C11.2637 20.2314 9.75189 18.4076 8.85375 16.2696C7.95562 14.1315 7.71148 11.7752 8.15227 9.49846C8.59307 7.22171 9.69899 5.12676 11.3302 3.47841C12.9614 1.83006 15.0446 0.70232 17.3167 0.237746C19.5887 -0.226829 21.9475 -0.00738245 24.0948 0.868346C26.2421 1.74407 28.0816 3.23677 29.3807 5.15774C30.6798 7.07871 31.3803 9.34172 31.3935 11.6607C31.4075 13.2032 31.1161 14.7331 30.5361 16.1624C29.956 17.5917 29.0988 18.892 28.0138 19.9884C26.9288 21.0849 25.6375 21.9556 24.2144 22.5506C22.7913 23.1456 21.2644 23.453 19.7218 23.4551Z" fill="#3BBF81"/>
</svg>
